<?xml version="1.0" encoding="UTF-8"?>
<!DOCTYPE svg PUBLIC "-//W3C//DTD SVG 1.1//EN" "http://www.w3.org/Graphics/SVG/1.1/DTD/svg11.dtd">
<!-- Creator: CorelDRAW -->
<svg xmlns="http://www.w3.org/2000/svg" xml:space="preserve" width="177.8mm" height="177.8mm" version="1.1" style="shape-rendering:geometricPrecision; text-rendering:geometricPrecision; image-rendering:optimizeQuality; fill-rule:evenodd; clip-rule:evenodd"
viewBox="0 0 17780 17780"
 xmlns:xlink="http://www.w3.org/1999/xlink"
 xmlns:xodm="http://www.corel.com/coreldraw/odm/2003">
 <defs>
  <style type="text/css">
   <![CDATA[
    .fil0 {fill:none}
    .fil1 {fill:#01C883}
   ]]>
  </style>
 </defs>
 <g id="Layer_x0020_1">
  <metadata id="CorelCorpID_0Corel-Layer"/>
  <rect class="fil0" width="17780" height="17780"/>
  <g id="_2023169853760">
   <g>
    <path class="fil1" d="M9226.67 5637.17l3611.26 0 0 -684.59 -3752.28 0 0 5.3c-68.26,-3.52 -137.01,-5.3 -206.16,-5.3 -823.21,0 -1587.41,252.63 -2219.31,684.59 -49.58,33.88 -98.33,68.87 -146.24,104.94 -954.59,718.49 -1571.87,1861.11 -1571.87,3147.9 0,2174.56 1762.84,3937.42 3937.42,3937.42 69.15,0 137.9,-1.78 206.16,-5.3l0 5.3 3752.28 0 0 -684.61 -3611.26 0c-46.71,4.93 -93.74,8.88 -141.02,11.8 -68.18,4.25 -136.91,6.41 -206.16,6.41 -117.26,0 -233.1,-6.17 -347.17,-18.21 -1580.79,-166.78 -2825.88,-1459.53 -2918.34,-3061.33l899.96 0 0 -684.58 -868.55 0c220.73,-1460.09 1406.66,-2603.58 2886.93,-2759.74 114.07,-12.04 229.91,-18.21 347.17,-18.21 69.25,0 137.98,2.16 206.16,6.41 47.28,2.92 94.31,6.88 141.02,11.8z"/>
    <path class="fil1" d="M11247.14 6484.28l-2161.49 0 -75.08 0c-1106.94,228 -1939.29,1208.13 -1939.29,2382.6 0,1297.28 1015.5,2357.41 2294.91,2428.83l275.52 0 1605.43 0 0 -684.59 -1715.22 0c-947.87,0 -1716.29,-768.42 -1716.29,-1716.29 0,-2079.72 2102.8,-1725.96 3431.51,-1725.96l0 -684.59z"/>
    <polygon class="fil1" points="12153.32,8396.91 9085.65,8396.91 9085.65,9081.49 12153.32,9081.49 12153.32,11295.71 12837.93,11295.71 12837.93,9081.49 12837.93,6484.28 12153.32,6484.28 "/>
   </g>
  </g>
 </g>
</svg>
