<svg width="794" height="500" viewBox="0 0 794 500" fill="none" xmlns="http://www.w3.org/2000/svg">
<path d="M235.158 0C258.955 0 280.65 2.0988 300.247 6.30435C319.845 10.5059 336.641 17.3986 350.637 26.9585C364.633 36.5303 375.483 49.2542 383.182 65.1304C390.881 81.0066 394.731 100.611 394.731 123.952C394.731 149.166 389.014 170.174 377.584 186.976C366.147 203.782 349.239 217.552 326.845 228.292C357.637 237.165 380.616 252.695 395.784 274.859C410.936 297.04 418.535 323.772 418.535 355.043C418.535 380.253 413.637 402.083 403.832 420.527C394.04 438.975 380.85 454.029 364.296 465.683C347.729 477.362 328.831 485.992 307.605 491.604C286.245 497.217 264.25 500.039 242.166 500H0V0H235.158ZM221.162 202.387C240.76 202.387 256.853 197.721 269.455 188.379C282.052 179.046 288.349 163.869 288.349 142.862C288.349 131.195 286.251 121.619 282.052 114.15C277.853 106.685 272.255 100.838 265.255 96.6442C258.255 92.4387 250.207 89.5329 241.109 87.8873C231.752 86.2339 222.266 85.4145 212.764 85.4387H109.882V202.391L221.162 202.387ZM227.459 414.565C238.185 414.565 248.455 413.511 258.251 411.413C268.048 409.31 276.677 405.808 284.15 400.903C291.607 396.01 297.558 389.351 301.995 380.944C306.425 372.545 308.642 361.809 308.642 348.731C308.642 323.064 301.403 304.74 286.947 293.765C272.478 282.794 253.349 277.304 229.556 277.304H109.882V414.557L227.459 414.565ZM556.814 404.063C571.744 418.548 593.209 425.77 621.204 425.77C641.259 425.77 658.528 420.762 672.989 410.717C687.454 400.692 696.321 390.063 699.586 378.853H787.07C773.078 422.268 751.605 453.321 722.684 471.988C693.746 490.666 658.751 500 617.696 500C589.236 500 563.568 495.448 540.709 486.341C517.842 477.243 498.475 464.284 482.624 447.478C466.756 430.676 454.508 410.614 445.876 387.261C437.239 363.923 432.933 338.241 432.933 310.229C432.933 283.159 437.354 257.95 446.229 234.605C455.085 211.267 467.678 191.074 484.026 174.026C500.346 156.993 519.832 143.569 542.465 133.763C565.089 123.956 590.169 119.059 617.7 119.059C648.497 119.059 675.321 125.01 698.192 136.915C721.047 148.816 739.83 164.823 754.533 184.881C769.228 204.959 779.836 227.839 786.383 253.506C792.914 279.188 795.238 306.027 793.383 334.039H532.326C533.721 366.245 541.873 389.598 556.814 404.063ZM669.143 213.589C657.249 200.523 639.161 193.98 614.908 193.98C599.04 193.98 585.863 196.671 575.367 202.033C564.867 207.412 556.465 214.05 550.164 221.992C543.871 229.934 539.43 238.341 536.871 247.201C534.301 256.074 532.783 264.012 532.318 271.012H693.989C689.325 245.798 681.046 226.663 669.143 213.589ZM515.347 25.3883H717.344V81.4279H515.347V25.3883Z" fill="#F0F0F0" fill-opacity="0.6"/>
</svg>
