<svg width="334" height="500" viewBox="0 0 334 500" fill="none" xmlns="http://www.w3.org/2000/svg">
<path d="M83.3333 500C129.333 500 166.667 462.667 166.667 416.667V333.333H83.3333C37.3333 333.333 0 370.667 0 416.667C0 462.667 37.3333 500 83.3333 500Z" fill="#0F1331"/>
<path d="M0 250C0 204 37.3333 166.667 83.3333 166.667H166.667V333.333H83.3333C37.3333 333.333 0 296 0 250Z" fill="#0F1331"/>
<path d="M0 83.3333C0 37.3333 37.3333 0 83.3333 0H166.667V166.667H83.3333C37.3333 166.667 0 129.333 0 83.3333Z" fill="#0F1331"/>
<path d="M166.667 0H250C296 0 333.333 37.3333 333.333 83.3333C333.333 129.333 296 166.667 250 166.667H166.667V0Z" fill="#0F1331"/>
<path d="M333.333 250C333.333 296 296 333.333 250 333.333C204 333.333 166.667 296 166.667 250C166.667 204 204 166.667 250 166.667C296 166.667 333.333 204 333.333 250Z" fill="#0F1331"/>
</svg>
