<svg width="508" height="500" viewBox="0 0 508 500" fill="none" xmlns="http://www.w3.org/2000/svg">
<path fill-rule="evenodd" clip-rule="evenodd" d="M254.21 0C113.639 0 0 114.583 0 256.337C0 369.65 72.8121 465.566 173.822 499.514C186.451 502.066 191.077 493.998 191.077 487.212C191.077 481.269 190.66 460.899 190.66 439.675C119.945 454.956 105.219 409.118 105.219 409.118C93.8549 379.41 77.0165 371.775 77.0165 371.775C53.8715 356.071 78.7024 356.071 78.7024 356.071C104.376 357.769 117.848 382.384 117.848 382.384C140.572 421.425 177.188 410.394 191.919 403.602C194.022 387.05 200.76 375.592 207.915 369.228C151.515 363.285 92.1742 341.217 92.1742 242.754C92.1742 214.744 102.269 191.827 118.264 174.004C115.741 167.64 106.9 141.322 120.793 106.099C120.793 106.099 142.258 99.3069 190.655 132.411C211.376 126.8 232.745 123.945 254.21 123.921C275.674 123.921 297.555 126.895 317.76 132.411C366.163 99.3069 387.627 106.099 387.627 106.099C401.52 141.322 392.674 167.64 390.151 174.004C406.568 191.827 416.246 214.744 416.246 242.754C416.246 341.217 356.906 362.858 300.084 369.228C309.346 377.29 317.339 392.566 317.339 416.759C317.339 451.134 316.922 478.722 316.922 487.206C316.922 493.998 321.553 502.066 334.177 499.519C435.187 465.561 507.999 369.65 507.999 256.337C508.415 114.583 394.36 0 254.21 0Z" fill="#0F1331"/>
</svg>
