<svg width="500" height="500" viewBox="0 0 500 500" fill="none" xmlns="http://www.w3.org/2000/svg">
<path d="M463.047 0C483.457 0 500 16.0469 500 35.8164V464.189C500 483.965 483.457 500 463.047 500H36.9531C16.5527 500 7.98474e-07 483.967 0 464.195V35.8164C0 16.0469 16.5508 7.81393e-08 36.9531 0H463.047ZM335.611 188.055C295.923 188.055 278.125 209.87 268.18 225.205V193.34H193.363C194.34 214.457 193.357 418.441 193.357 418.441L193.359 418.434H268.174V292.74C268.174 286.021 268.662 279.285 270.639 274.486C276.045 261.039 288.355 247.119 309.029 247.119C336.096 247.119 346.93 267.76 346.93 298.023V418.434H421.742V289.367C421.742 220.229 384.836 188.055 335.611 188.055ZM77.125 418.434H151.945V193.332H77.125V418.434ZM115.047 84.8203C89.4395 84.8203 72.7148 101.623 72.7148 123.715C72.7148 145.316 88.9492 162.602 114.061 162.602H114.545L114.551 162.604C140.637 162.604 156.877 145.318 156.877 123.717C156.389 101.623 140.637 84.8203 115.047 84.8203Z" fill="#F0F0F0" fill-opacity="0.6"/>
</svg>
