<svg width="1098" height="936" viewBox="0 0 1098 936" fill="none" xmlns="http://www.w3.org/2000/svg">
<g filter="url(#filter0_f_31_26)">
<path d="M857.201 502.389C808.586 453.775 732.468 449.434 678.939 489.362C671.806 476.72 662.86 464.824 652.094 454.059C625.194 427.159 591.247 411.601 556.196 407.385C564.864 352.651 548.108 294.671 505.925 252.489C435.941 182.504 322.473 182.504 252.488 252.489C182.504 322.473 182.504 435.941 252.488 505.926C286.053 539.49 329.618 556.953 373.592 558.323C370.47 603.8 386.289 650.334 421.054 685.099C484.854 748.899 588.294 748.899 652.094 685.099C652.506 684.688 652.913 684.273 653.319 683.859C656.571 687.96 660.091 691.918 663.882 695.708C717.265 749.092 803.817 749.092 857.201 695.708C910.584 642.325 910.584 555.773 857.201 502.389Z" fill="#379DFF" fill-opacity="0.5"/>
</g>
<defs>
<filter id="filter0_f_31_26" x="0" y="0" width="1097.24" height="935.746" filterUnits="userSpaceOnUse" color-interpolation-filters="sRGB">
<feFlood flood-opacity="0" result="BackgroundImageFix"/>
<feBlend mode="normal" in="SourceGraphic" in2="BackgroundImageFix" result="shape"/>
<feGaussianBlur stdDeviation="100" result="effect1_foregroundBlur_31_26"/>
</filter>
</defs>
</svg>
