<svg width="1141" height="931" viewBox="0 0 1141 931" fill="none" xmlns="http://www.w3.org/2000/svg">
<g filter="url(#filter0_f_31_20)">
<path d="M364 200C454.575 200 528 273.425 528 364C528 377.463 526.376 390.547 523.316 403.067C524.872 403.024 526.434 403 528 403C561.124 403 591.954 412.822 617.738 429.71C635.343 358.11 699.968 305 777 305C867.575 305 941 378.425 941 469C941 559.575 867.575 633 777 633C743.875 633 713.045 623.178 687.261 606.289C669.657 677.89 605.032 731 528 731C437.425 731 364 657.575 364 567C364 553.537 365.623 540.452 368.683 527.932C367.127 527.975 365.566 528 364 528C273.425 528 200 454.575 200 364C200 273.425 273.425 200 364 200Z" fill="#1DBF73" fill-opacity="0.6"/>
</g>
<defs>
<filter id="filter0_f_31_20" x="0" y="0" width="1141" height="931" filterUnits="userSpaceOnUse" color-interpolation-filters="sRGB">
<feFlood flood-opacity="0" result="BackgroundImageFix"/>
<feBlend mode="normal" in="SourceGraphic" in2="BackgroundImageFix" result="shape"/>
<feGaussianBlur stdDeviation="100" result="effect1_foregroundBlur_31_20"/>
</filter>
</defs>
</svg>
