<svg width="354" height="68" viewBox="0 0 354 68" fill="none" xmlns="http://www.w3.org/2000/svg">
<path d="M297 36C297 31.5817 300.582 28 305 28H346C350.418 28 354 31.5817 354 36V59C354 63.4183 350.418 67 346 67H297V36Z" fill="url(#paint0_linear_3_886)"/>
<path d="M28.08 67.4831C24.24 67.4831 20.6133 66.7364 17.2 65.2431C13.7867 63.7497 10.8 61.6964 8.24 59.0831C5.68 56.4164 3.65333 53.3497 2.16 49.8831C0.72 46.3631 0 42.6031 0 38.6031C0 34.6031 0.72 30.8697 2.16 27.4031C3.65333 23.9364 5.68 20.8964 8.24 18.2831C10.8533 15.6164 13.8933 13.5631 17.36 12.1231C20.88 10.6297 24.6667 9.88306 28.72 9.88306C33.1467 9.88306 37.2533 10.7364 41.04 12.4431C44.8267 14.1497 48 16.5764 50.56 19.7231L44.32 25.9631C42.6667 23.6164 40.4533 21.8297 37.68 20.6031C34.9067 19.3231 31.92 18.6831 28.72 18.6831C24.88 18.6831 21.4933 19.5364 18.56 21.2431C15.68 22.8964 13.44 25.2164 11.84 28.2031C10.24 31.1897 9.44 34.6564 9.44 38.6031C9.44 42.5497 10.24 46.0431 11.84 49.0831C13.4933 52.0697 15.7067 54.4164 18.48 56.1231C21.2533 57.8297 24.4 58.6831 27.92 58.6831C31.6533 58.6831 34.8533 58.0164 37.52 56.6831C40.24 55.2964 42.32 53.2697 43.76 50.6031C45.2 47.8831 45.92 44.5497 45.92 40.6031L51.68 44.7631H27.76V36.3631H55.44V37.6431C55.44 44.3097 54.24 49.8564 51.84 54.2831C49.4933 58.7097 46.2667 62.0164 42.16 64.2031C38.0533 66.3897 33.36 67.4831 28.08 67.4831Z" fill="#0F1331"/>
<path d="M63.3969 66.6831V28.2831H72.1969V66.6831H63.3969ZM72.1969 45.3231L69.1569 43.8031C69.1569 38.9497 70.2235 35.0297 72.3569 32.0431C74.5435 29.0031 77.8235 27.4831 82.1969 27.4831C84.1169 27.4831 85.8502 27.8297 87.3969 28.5231C88.9435 29.2164 90.3835 30.3364 91.7169 31.8831L85.9569 37.8031C85.2635 37.0564 84.4902 36.5231 83.6369 36.2031C82.7835 35.8831 81.7969 35.7231 80.6769 35.7231C78.2235 35.7231 76.1969 36.4964 74.5969 38.0431C72.9969 39.5897 72.1969 42.0164 72.1969 45.3231Z" fill="#0F1331"/>
<path d="M112.403 67.4831C108.67 67.4831 105.283 66.6031 102.243 64.8431C99.2031 63.0297 96.7765 60.6031 94.9631 57.5631C93.2031 54.5231 92.3231 51.1364 92.3231 47.4031C92.3231 43.6697 93.2031 40.3097 94.9631 37.3231C96.7765 34.3364 99.2031 31.9631 102.243 30.2031C105.283 28.3897 108.67 27.4831 112.403 27.4831C116.19 27.4831 119.603 28.3631 122.643 30.1231C125.683 31.8831 128.083 34.2831 129.843 37.3231C131.656 40.3097 132.563 43.6697 132.563 47.4031C132.563 51.1364 131.656 54.5231 129.843 57.5631C128.083 60.6031 125.683 63.0297 122.643 64.8431C119.603 66.6031 116.19 67.4831 112.403 67.4831ZM112.403 59.0031C114.59 59.0031 116.51 58.5231 118.163 57.5631C119.87 56.5497 121.176 55.1631 122.083 53.4031C123.043 51.6431 123.523 49.6431 123.523 47.4031C123.523 45.1631 123.043 43.1897 122.083 41.4831C121.123 39.7764 119.816 38.4431 118.163 37.4831C116.51 36.4697 114.59 35.9631 112.403 35.9631C110.27 35.9631 108.35 36.4697 106.643 37.4831C104.99 38.4431 103.683 39.7764 102.723 41.4831C101.816 43.1897 101.363 45.1631 101.363 47.4031C101.363 49.6431 101.816 51.6431 102.723 53.4031C103.683 55.1631 104.99 56.5497 106.643 57.5631C108.35 58.5231 110.27 59.0031 112.403 59.0031Z" fill="#0F1331"/>
<path d="M150.144 66.6831L134.704 28.2831H143.824L154.224 56.2031L151.504 56.2831L161.664 28.2831H166.784L176.944 56.2831L174.224 56.2031L185 28.5H192.508C193.219 28.5 193.703 29.2221 193.433 29.8802L178.304 66.6831H173.184L162.784 40.1231H165.664L155.264 66.6831H150.144Z" fill="#0F1331"/>
<path d="M232.332 66.6831V28.2831H241.132V66.6831H232.332Z" fill="#0F1331"/>
<path d="M267.082 67.4831C263.615 67.4831 260.469 66.6031 257.642 64.8431C254.869 63.0831 252.655 60.7097 251.002 57.7231C249.402 54.6831 248.602 51.2964 248.602 47.5631C248.602 43.7764 249.402 40.3897 251.002 37.4031C252.655 34.3631 254.869 31.9631 257.642 30.2031C260.469 28.3897 263.615 27.4831 267.082 27.4831C270.015 27.4831 272.602 28.1231 274.842 29.4031C277.135 30.6297 278.949 32.3364 280.282 34.5231C281.615 36.7097 282.282 39.1897 282.282 41.9631V53.0031C282.282 55.7764 281.615 58.2564 280.282 60.4431C279.002 62.6297 277.215 64.3631 274.922 65.6431C272.629 66.8697 270.015 67.4831 267.082 67.4831ZM268.522 59.1631C271.775 59.1631 274.389 58.0697 276.362 55.8831C278.389 53.6964 279.402 50.8964 279.402 47.4831C279.402 45.1897 278.949 43.1631 278.042 41.4031C277.135 39.6431 275.855 38.2831 274.202 37.3231C272.602 36.3097 270.709 35.8031 268.522 35.8031C266.389 35.8031 264.495 36.3097 262.842 37.3231C261.242 38.2831 259.962 39.6431 259.002 41.4031C258.095 43.1631 257.642 45.1897 257.642 47.4831C257.642 49.7764 258.095 51.8031 259.002 53.5631C259.962 55.3231 261.242 56.7097 262.842 57.7231C264.495 58.6831 266.389 59.1631 268.522 59.1631ZM278.842 66.6831V56.3631L280.362 47.0031L278.842 37.7231V28.2831H287.642V66.6831H278.842Z" fill="#0F1331"/>
<path d="M306.042 60.4C305.189 60.4 304.482 60.12 303.922 59.56C303.389 58.9733 303.122 58.2667 303.122 57.44C303.122 56.5867 303.389 55.88 303.922 55.32C304.482 54.76 305.189 54.48 306.042 54.48C306.895 54.48 307.589 54.76 308.122 55.32C308.682 55.88 308.962 56.5867 308.962 57.44C308.962 58.2667 308.682 58.9733 308.122 59.56C307.589 60.12 306.895 60.4 306.042 60.4Z" fill="white"/>
<path d="M321.66 60.4C319.926 60.4 318.353 59.96 316.94 59.08C315.553 58.2 314.446 57.0133 313.62 55.52C312.82 54 312.42 52.3067 312.42 50.44C312.42 48.5467 312.82 46.8533 313.62 45.36C314.446 43.84 315.553 42.64 316.94 41.76C318.353 40.8533 319.926 40.4 321.66 40.4C323.126 40.4 324.42 40.72 325.54 41.36C326.686 41.9733 327.593 42.8267 328.26 43.92C328.926 45.0133 329.26 46.2533 329.26 47.64V53.16C329.26 54.5467 328.926 55.7867 328.26 56.88C327.62 57.9733 326.726 58.84 325.58 59.48C324.433 60.0933 323.126 60.4 321.66 60.4ZM322.38 56.24C324.006 56.24 325.313 55.6933 326.3 54.6C327.313 53.5067 327.82 52.1067 327.82 50.4C327.82 49.2533 327.593 48.24 327.14 47.36C326.686 46.48 326.046 45.8 325.22 45.32C324.42 44.8133 323.473 44.56 322.38 44.56C321.313 44.56 320.366 44.8133 319.54 45.32C318.74 45.8 318.1 46.48 317.62 47.36C317.166 48.24 316.94 49.2533 316.94 50.4C316.94 51.5467 317.166 52.56 317.62 53.44C318.1 54.32 318.74 55.0133 319.54 55.52C320.366 56 321.313 56.24 322.38 56.24ZM327.54 60V54.84L328.3 50.16L327.54 45.52V40.8H331.94V60H327.54Z" fill="white"/>
<path d="M336.863 60V40.8H341.263V60H336.863ZM339.063 37.28C338.316 37.28 337.689 37.0267 337.183 36.52C336.703 36.0133 336.463 35.3867 336.463 34.64C336.463 33.8933 336.703 33.2667 337.183 32.76C337.689 32.2533 338.316 32 339.063 32C339.836 32 340.463 32.2533 340.943 32.76C341.423 33.2667 341.663 33.8933 341.663 34.64C341.663 35.3867 341.423 36.0133 340.943 36.52C340.463 37.0267 339.836 37.28 339.063 37.28Z" fill="white"/>
<path d="M237.651 24.4395L230.286 19.4795L207.64 66.8096H202.52L185 28.4102H192.118C193.72 28.4102 195.168 29.3657 195.797 30.8389L205.396 53.3164L223.056 16.2686L215.417 14.0713L235.514 0L237.651 24.4395Z" fill="url(#paint1_linear_3_886)"/>
<defs>
<linearGradient id="paint0_linear_3_886" x1="211.326" y1="0" x2="211.326" y2="66.8096" gradientUnits="userSpaceOnUse">
<stop stop-color="#1DBF73"/>
<stop offset="1" stop-color="#005258"/>
</linearGradient>
<linearGradient id="paint1_linear_3_886" x1="211.326" y1="0" x2="211.326" y2="66.8096" gradientUnits="userSpaceOnUse">
<stop stop-color="#1DBF73"/>
<stop offset="1" stop-color="#005258"/>
</linearGradient>
</defs>
</svg>
